# xmcd
#
# Track frame offsets:
# 150
# 11579
# 22028
# 33667
# 44404
# 55464
# 67177
# 79090
# 90677
# 102127
# 114881
# 126032
# 140180
# 153565
# 166473
# 178535
# 190608
# 201687
# 212136
# 225072
# 248105
# 261199
# 271360
#
# Disc length: 3771 seconds
#
# Revision: 0
# Processed by: cddbd v1.4PL0 Copyright (c) Steve Scherf et al.
# Submitted via: Audion 3.0.2 (http://www.panic.com/audion/)
#
DISCID=4b0eb917
DTITLE=Clarence Carter - This is Clarence Carter - Testifyin'
DYEAR=1900
DGENRE=
TTITLE0=Do what you gotta do
TTITLE1=Looking for a fox
TTITLE2=Slippin'around
TTITLE3=I'm qualified
TTITLE4=I can't see myself
TTITLE5=Wind it up
TTITLE6=Part time love
TTITLE7=Thread the needle
TTITLE8=Slip away
TTITLE9=Funky fever
TTITLE10=She ain't gonna do right
TTITLE11=Set me free
TTITLE12=Bad news
TTITLE13=Snatching it back
TTITLE14=Soul deep
TTITLE15=I smell a rat
TTITLE16=Doin'our thing
TTITLE17=You can't miss what you can't measure
TTITLE18=Instant reaction
TTITLE19=Making love (at the dark end of the street)
TTITLE20=The feeling is right
TTITLE21=Back door santa
TTITLE22=I can't do without you
EXTD=
EXTT0=
EXTT1=
EXTT2=
EXTT3=
EXTT4=
EXTT5=
EXTT6=
EXTT7=
EXTT8=
EXTT9=
EXTT10=
EXTT11=
EXTT12=
EXTT13=
EXTT14=
EXTT15=
EXTT16=
EXTT17=
EXTT18=
EXTT19=
EXTT20=
EXTT21=
EXTT22=
PLAYORDER=
